<svg width="68" height="68" viewBox="0 0 68 68" fill="none" xmlns="http://www.w3.org/2000/svg">
<circle cx="34" cy="34" r="34" fill="#E8E5E5"/>
<g clip-path="url(#clip0_341_2529)">
<path d="M52.2859 45.3577C51.1384 44.3347 50.1337 43.162 49.299 41.871C48.3877 40.089 47.8416 38.143 47.6925 36.1471V30.2685C47.7004 27.1336 46.5632 24.1037 44.4947 21.7481C42.4261 19.3925 39.5686 17.8733 36.4589 17.476V15.9409C36.4589 15.5196 36.2915 15.1155 35.9936 14.8176C35.6957 14.5196 35.2916 14.3522 34.8703 14.3522C34.4489 14.3522 34.0448 14.5196 33.7469 14.8176C33.449 15.1155 33.2816 15.5196 33.2816 15.9409V17.4998C30.1998 17.9257 27.3768 19.4541 25.3354 21.8018C23.294 24.1495 22.1726 27.1574 22.1789 30.2685V36.1471C22.0299 38.143 21.4837 40.089 20.5724 41.871C19.7524 43.159 18.7638 44.3316 17.6331 45.3577C17.5062 45.4692 17.4044 45.6065 17.3347 45.7604C17.2649 45.9143 17.2287 46.0812 17.2285 46.2502V47.8686C17.2285 48.1842 17.3539 48.4869 17.5771 48.7101C17.8002 48.9332 18.1029 49.0586 18.4185 49.0586H51.5005C51.8161 49.0586 52.1188 48.9332 52.342 48.7101C52.5651 48.4869 52.6905 48.1842 52.6905 47.8686V46.2502C52.6903 46.0812 52.6541 45.9143 52.5843 45.7604C52.5146 45.6065 52.4128 45.4692 52.2859 45.3577ZM19.7037 46.6786C20.8109 45.609 21.7857 44.4105 22.6073 43.1086C23.7552 40.9565 24.425 38.5819 24.5708 36.1471V30.2685C24.5236 28.8739 24.7576 27.484 25.2587 26.1816C25.7598 24.8793 26.5179 23.6911 27.4878 22.6878C28.4577 21.6846 29.6196 20.8867 30.9042 20.3418C32.1889 19.797 33.57 19.5161 34.9655 19.5161C36.3609 19.5161 37.7421 19.797 39.0267 20.3418C40.3114 20.8867 41.4732 21.6846 42.4431 22.6878C43.413 23.6911 44.1711 24.8793 44.6722 26.1816C45.1734 27.484 45.4073 28.8739 45.3601 30.2685V36.1471C45.506 38.5819 46.1757 40.9565 47.3236 43.1086C48.1452 44.4105 49.12 45.609 50.2272 46.6786H19.7037Z" fill="#767676"/>
<path d="M35.0193 53.0332C35.7689 53.0159 36.4883 52.7341 37.0501 52.2376C37.612 51.7411 37.9802 51.0618 38.0895 50.32H31.8301C31.9425 51.082 32.3279 51.7772 32.9145 52.2763C33.5012 52.7753 34.2491 53.0443 35.0193 53.0332Z" fill="#767676"/>
</g>
<defs>
<clipPath id="clip0_341_2529">
<rect width="42.84" height="42.84" fill="white" transform="translate(13.5996 12.24)"/>
</clipPath>
</defs>
</svg>
