<svg width="33" height="32" viewBox="0 0 33 32" fill="none" xmlns="http://www.w3.org/2000/svg">
<path d="M28.5195 12.0011C29.6241 12.0011 30.5195 11.1057 30.5195 10.0011C30.5195 8.89653 29.6241 8.0011 28.5195 8.0011C27.415 8.0011 26.5195 8.89653 26.5195 10.0011C26.5195 11.1057 27.415 12.0011 28.5195 12.0011Z" fill="#D200F4"/>
<path d="M18.5195 29.0011H11.5195V27.0011H18.5195C23.4825 27.0011 27.5195 22.9641 27.5195 18.0011V14.0011H29.5195V18.0011C29.5195 24.0661 24.5845 29.0011 18.5195 29.0011Z" fill="#D200F4"/>
<path d="M16.5195 21.0011C13.7625 21.0011 11.5195 18.7581 11.5195 16.0011C11.5195 13.2441 13.7625 11.0011 16.5195 11.0011C19.2765 11.0011 21.5195 13.2441 21.5195 16.0011C21.5195 18.7581 19.2765 21.0011 16.5195 21.0011ZM16.5195 13.0011C14.8655 13.0011 13.5195 14.3471 13.5195 16.0011C13.5195 17.6551 14.8655 19.0011 16.5195 19.0011C18.1735 19.0011 19.5195 17.6551 19.5195 16.0011C19.5195 14.3471 18.1735 13.0011 16.5195 13.0011Z" fill="#D200F4"/>
<path d="M4.51953 24.0011C5.6241 24.0011 6.51953 23.1057 6.51953 22.0011C6.51953 20.8965 5.6241 20.0011 4.51953 20.0011C3.41496 20.0011 2.51953 20.8965 2.51953 22.0011C2.51953 23.1057 3.41496 24.0011 4.51953 24.0011Z" fill="#D200F4"/>
<path d="M5.51953 18.0011H3.51953V14.0011C3.51953 7.9361 8.45453 3.0011 14.5195 3.0011H21.5195V5.0011H14.5195C9.55653 5.0011 5.51953 9.0381 5.51953 14.0011V18.0011Z" fill="#D200F4"/>
</svg>
