<svg width="33" height="33" viewBox="0 0 33 33" fill="none" xmlns="http://www.w3.org/2000/svg">
<path d="M9.52148 18.5869C10.6261 18.5869 11.5215 17.6915 11.5215 16.5869C11.5215 15.4823 10.6261 14.5869 9.52148 14.5869C8.41691 14.5869 7.52148 15.4823 7.52148 16.5869C7.52148 17.6915 8.41691 18.5869 9.52148 18.5869Z" fill="#2B84E2"/>
<path d="M23.5215 18.5869C24.6261 18.5869 25.5215 17.6915 25.5215 16.5869C25.5215 15.4823 24.6261 14.5869 23.5215 14.5869C22.4169 14.5869 21.5215 15.4823 21.5215 16.5869C21.5215 17.6915 22.4169 18.5869 23.5215 18.5869Z" fill="#2B84E2"/>
<path d="M16.5215 18.5869C17.6261 18.5869 18.5215 17.6915 18.5215 16.5869C18.5215 15.4823 17.6261 14.5869 16.5215 14.5869C15.4169 14.5869 14.5215 15.4823 14.5215 16.5869C14.5215 17.6915 15.4169 18.5869 16.5215 18.5869Z" fill="#2B84E2"/>
<path d="M16.5215 30.5869C13.7526 30.5869 11.0458 29.7658 8.74351 28.2275C6.44122 26.6891 4.6468 24.5026 3.58718 21.9445C2.52755 19.3863 2.2503 16.5714 2.7905 13.8556C3.33069 11.1399 4.66406 8.64533 6.622 6.68739C8.57993 4.72946 11.0745 3.39609 13.7902 2.8559C16.506 2.3157 19.3209 2.59295 21.8791 3.65258C24.4372 4.7122 26.6237 6.50662 28.1621 8.80891C29.7004 11.1112 30.5215 13.818 30.5215 16.5869C30.5173 20.2986 29.0409 23.8571 26.4163 26.4817C23.7917 29.1063 20.2332 30.5827 16.5215 30.5869ZM16.5215 4.58689C14.1481 4.58689 11.828 5.29068 9.85465 6.60925C7.88126 7.92783 6.34319 9.80198 5.43494 11.9947C4.52668 14.1874 4.28904 16.6002 4.75207 18.928C5.21509 21.2557 6.35798 23.3939 8.03621 25.0722C9.71444 26.7504 11.8526 27.8933 14.1804 28.3563C16.5082 28.8193 18.921 28.5817 21.1137 27.6734C23.3064 26.7652 25.1805 25.2271 26.4991 23.2537C27.8177 21.2803 28.5215 18.9603 28.5215 16.5869C28.5178 13.4054 27.2523 10.3553 25.0027 8.1057C22.753 5.85607 19.703 4.5906 16.5215 4.58689Z" fill="#2B84E2"/>
</svg>
