<svg width="33" height="32" viewBox="0 0 33 32" fill="none" xmlns="http://www.w3.org/2000/svg">
<path d="M5.85417 28C5.12084 28 4.49284 27.7387 3.97017 27.216C3.4475 26.6933 3.18661 26.0658 3.1875 25.3333V10.6667C3.1875 9.93334 3.44884 9.30534 3.9715 8.78267C4.49417 8.26001 5.12172 7.99912 5.85417 8.00001H11.1875V5.33334C11.1875 4.60001 11.4488 3.97201 11.9715 3.44934C12.4942 2.92667 13.1217 2.66579 13.8542 2.66667H19.1875C19.9208 2.66667 20.5488 2.92801 21.0715 3.45067C21.5942 3.97334 21.8551 4.6009 21.8542 5.33334V8.00001H27.1875C27.9208 8.00001 28.5488 8.26134 29.0715 8.78401C29.5942 9.30667 29.8551 9.93423 29.8542 10.6667V25.3333C29.8542 26.0667 29.5928 26.6947 29.0702 27.2173C28.5475 27.74 27.9199 28.0009 27.1875 28H5.85417ZM5.85417 25.3333H27.1875V10.6667H5.85417V25.3333ZM13.8542 8.00001H19.1875V5.33334H13.8542V8.00001Z" fill="#17D5FF"/>
<path d="M5.85417 28C5.12084 28 4.49284 27.7387 3.97017 27.216C3.4475 26.6933 3.18661 26.0658 3.1875 25.3333V10.6667C3.1875 9.93334 3.44884 9.30534 3.9715 8.78267C4.49417 8.26001 5.12172 7.99912 5.85417 8.00001H11.1875V5.33334C11.1875 4.60001 11.4488 3.97201 11.9715 3.44934C12.4942 2.92667 13.1217 2.66579 13.8542 2.66667H19.1875C19.9208 2.66667 20.5488 2.92801 21.0715 3.45067C21.5942 3.97334 21.8551 4.6009 21.8542 5.33334V8.00001H27.1875C27.9208 8.00001 28.5488 8.26134 29.0715 8.78401C29.5942 9.30667 29.8551 9.93423 29.8542 10.6667V25.3333C29.8542 26.0667 29.5928 26.6947 29.0702 27.2173C28.5475 27.74 27.9199 28.0009 27.1875 28H5.85417ZM5.85417 25.3333H27.1875V10.6667H5.85417V25.3333ZM13.8542 8.00001H19.1875V5.33334H13.8542V8.00001Z" fill="black" fill-opacity="0.2"/>
</svg>
