<svg width="65" height="65" viewBox="0 0 65 65" fill="none" xmlns="http://www.w3.org/2000/svg">
<path fill-rule="evenodd" clip-rule="evenodd" d="M10.834 20.119V44.8809C10.834 46.5228 11.4862 48.0973 12.6471 49.2583C13.8081 50.4192 15.3826 51.0714 17.0245 51.0714H47.9768C49.6187 51.0714 51.1932 50.4192 52.3542 49.2583C53.5151 48.0973 54.1673 46.5228 54.1673 44.8809V20.119C54.1673 18.4772 53.5151 16.9026 52.3542 15.7417C51.1932 14.5808 49.6187 13.9286 47.9768 13.9286H17.0245C15.3826 13.9286 13.8081 14.5808 12.6471 15.7417C11.4862 16.9026 10.834 18.4772 10.834 20.119Z" stroke="black" stroke-linecap="round" stroke-linejoin="round"/>
<path d="M17.0254 23.2143L32.5016 32.5L47.9778 23.2143" stroke="black" stroke-linecap="round" stroke-linejoin="round"/>
</svg>
