<svg width="65" height="65" viewBox="0 0 65 65" fill="none" xmlns="http://www.w3.org/2000/svg">
<path fill-rule="evenodd" clip-rule="evenodd" d="M10.834 21.1064V44.8809C10.834 46.5228 11.4862 48.0973 12.6471 49.2583C13.8081 50.4192 15.3826 51.0714 17.0245 51.0714H47.9768C49.6187 51.0714 51.1932 50.4192 52.3542 49.2583C53.5151 48.0973 54.1673 46.5228 54.1673 44.8809V21.1064C54.1672 19.8951 53.8117 18.7105 53.1449 17.6992C52.478 16.688 51.5292 15.8946 50.4159 15.4174L34.9397 8.78428C34.169 8.4539 33.3392 8.28354 32.5007 8.28354C31.6621 8.28354 30.8323 8.4539 30.0616 8.78428L14.5854 15.4174C13.4721 15.8946 12.5233 16.688 11.8564 17.6992C11.1896 18.7105 10.8341 19.8951 10.834 21.1064Z" stroke="black" stroke-linecap="round" stroke-linejoin="round"/>
<path d="M17.0254 23.2143L32.5016 32.5L47.9778 23.2143" stroke="black" stroke-linecap="round" stroke-linejoin="round"/>
</svg>
