<svg width="22" height="22" viewBox="0 0 22 22" fill="none" xmlns="http://www.w3.org/2000/svg">
<path d="M8.47878 20.1667L8.11211 17.2333C7.9135 17.1569 7.72619 17.0653 7.55019 16.9583C7.37419 16.8514 7.20247 16.7368 7.03503 16.6146L4.30794 17.7604L1.78711 13.4062L4.14753 11.6187C4.13225 11.5118 4.12461 11.4085 4.12461 11.3089V10.6911C4.12461 10.5915 4.13225 10.4882 4.14753 10.3812L1.78711 8.59375L4.30794 4.23958L7.03503 5.38541C7.20308 5.26319 7.37878 5.14861 7.56211 5.04166C7.74544 4.93472 7.92878 4.84305 8.11211 4.76666L8.47878 1.83333H13.5204L13.8871 4.76666C14.0857 4.84305 14.273 4.93472 14.449 5.04166C14.625 5.14861 14.7967 5.26319 14.9642 5.38541L17.6913 4.23958L20.2121 8.59375L17.8517 10.3812C17.867 10.4882 17.8746 10.5915 17.8746 10.6911V11.3089C17.8746 11.4085 17.8593 11.5118 17.8288 11.6187L20.1892 13.4062L17.6684 17.7604L14.9642 16.6146C14.7961 16.7368 14.6204 16.8514 14.4371 16.9583C14.2538 17.0653 14.0704 17.1569 13.8871 17.2333L13.5204 20.1667H8.47878ZM10.0829 18.3333H11.8934L12.2142 15.9042C12.6878 15.7819 13.1272 15.6023 13.5324 15.3652C13.9375 15.128 14.3079 14.8417 14.6434 14.5062L16.9121 15.4458L17.8059 13.8875L15.835 12.3979C15.9114 12.184 15.9649 11.9588 15.9954 11.7223C16.026 11.4858 16.0413 11.2451 16.0413 11C16.0413 10.7556 16.026 10.5151 15.9954 10.2786C15.9649 10.0421 15.9114 9.81658 15.835 9.60208L17.8059 8.1125L16.9121 6.55416L14.6434 7.51666C14.3072 7.16527 13.9369 6.87133 13.5324 6.63483C13.1278 6.39833 12.6884 6.21866 12.2142 6.09583L11.9163 3.66666H10.1059L9.78503 6.09583C9.31142 6.21805 8.87233 6.39772 8.46778 6.63483C8.06322 6.87194 7.69258 7.15825 7.35586 7.49375L5.08711 6.55416L4.19336 8.1125L6.16419 9.57916C6.0878 9.80833 6.03433 10.0375 6.00378 10.2667C5.97322 10.4958 5.95794 10.7403 5.95794 11C5.95794 11.2444 5.97322 11.4812 6.00378 11.7104C6.03433 11.9396 6.0878 12.1687 6.16419 12.3979L4.19336 13.8875L5.08711 15.4458L7.35586 14.4833C7.69197 14.8347 8.06261 15.129 8.46778 15.3661C8.87294 15.6032 9.31203 15.7826 9.78503 15.9042L10.0829 18.3333ZM10.9996 14.6667C11.2593 14.6667 11.4772 14.5787 11.6532 14.4027C11.8292 14.2267 11.9169 14.0091 11.9163 13.75C11.9163 13.4903 11.8283 13.2724 11.6523 13.0964C11.4763 12.9204 11.2587 12.8327 10.9996 12.8333C10.7399 12.8333 10.522 12.9213 10.346 13.0973C10.17 13.2733 10.0823 13.4909 10.0829 13.75C10.0829 14.0097 10.1709 14.2276 10.3469 14.4036C10.5229 14.5796 10.7405 14.6673 10.9996 14.6667ZM10.0829 11.9167H11.9163V7.33333H10.0829V11.9167Z" fill="black"/>
</svg>
