<svg width="82" height="16" viewBox="0 0 82 16" fill="none" xmlns="http://www.w3.org/2000/svg">
<path d="M57.506 0.90375L59.1885 4.74125C59.2518 4.88567 59.3527 5.01046 59.4807 5.10259C59.6087 5.19471 59.759 5.2508 59.916 5.265L64.0148 5.6325C64.4785 5.7 64.6635 6.26875 64.3273 6.59625L61.2398 9.19C60.9898 9.4 60.876 9.73 60.9448 10.0487L61.8423 14.25C61.921 14.7112 61.4373 15.0637 61.0223 14.845L57.4448 12.75C57.3099 12.6708 57.1563 12.6291 56.9998 12.6291C56.8433 12.6291 56.6897 12.6708 56.5548 12.75L52.9773 14.8437C52.5635 15.0612 52.0785 14.71 52.1573 14.2487L53.0548 10.0475C53.1223 9.72875 53.0098 9.39875 52.7598 9.18875L49.671 6.5975C49.336 6.27125 49.521 5.70125 49.9835 5.63375L54.0823 5.26625C54.2393 5.25205 54.3897 5.19596 54.5177 5.10384C54.6456 5.01171 54.7465 4.88692 54.8098 4.7425L56.4923 0.905C56.701 0.485 57.2985 0.485 57.506 0.90375Z" fill="#FDD835"/>
<path d="M57.3845 4.97125L57.0995 2.14375C57.0883 1.98625 57.0558 1.71625 57.3083 1.71625C57.5083 1.71625 57.617 2.1325 57.617 2.1325L58.472 4.4025C58.7945 5.26625 58.662 5.5625 58.3508 5.7375C57.9933 5.9375 57.4658 5.78125 57.3845 4.97125Z" fill="#FFFF8D"/>
<path d="M60.91 8.93875L63.3625 7.025C63.4838 6.92375 63.7025 6.7625 63.5275 6.57875C63.3888 6.43375 63.0138 6.6425 63.0138 6.6425L60.8675 7.48125C60.2275 7.70249 59.8025 8.03 59.765 8.4425C59.7163 8.9925 60.21 9.41625 60.91 8.93875Z" fill="#F4B400"/>
<path d="M25.506 0.90375L27.1885 4.74125C27.2518 4.88567 27.3527 5.01046 27.4807 5.10259C27.6087 5.19471 27.759 5.2508 27.916 5.265L32.0148 5.6325C32.4785 5.7 32.6635 6.26875 32.3273 6.59625L29.2398 9.19C28.9898 9.4 28.876 9.73 28.9448 10.0487L29.8423 14.25C29.921 14.7112 29.4373 15.0637 29.0223 14.845L25.4448 12.75C25.3099 12.6708 25.1563 12.6291 24.9998 12.6291C24.8433 12.6291 24.6897 12.6708 24.5548 12.75L20.9773 14.8437C20.5635 15.0612 20.0785 14.71 20.1573 14.2487L21.0548 10.0475C21.1223 9.72875 21.0098 9.39875 20.7598 9.18875L17.671 6.5975C17.336 6.27125 17.521 5.70125 17.9835 5.63375L22.0823 5.26625C22.2393 5.25205 22.3897 5.19596 22.5177 5.10384C22.6456 5.01171 22.7465 4.88692 22.8098 4.7425L24.4923 0.905C24.701 0.485 25.2985 0.485 25.506 0.90375Z" fill="#FDD835"/>
<path d="M25.3845 4.97125L25.0995 2.14375C25.0883 1.98625 25.0558 1.71625 25.3083 1.71625C25.5083 1.71625 25.617 2.1325 25.617 2.1325L26.472 4.4025C26.7945 5.26625 26.662 5.5625 26.3508 5.7375C25.9933 5.9375 25.4658 5.78125 25.3845 4.97125Z" fill="#FFFF8D"/>
<path d="M28.91 8.93875L31.3625 7.025C31.4838 6.92375 31.7025 6.7625 31.5275 6.57875C31.3888 6.43375 31.0138 6.6425 31.0138 6.6425L28.8675 7.48125C28.2275 7.70249 27.8025 8.03 27.765 8.4425C27.7163 8.9925 28.21 9.41625 28.91 8.93875Z" fill="#F4B400"/>
<path d="M74.506 0.90375L76.1885 4.74125C76.2518 4.88567 76.3527 5.01046 76.4807 5.10259C76.6087 5.19471 76.759 5.2508 76.916 5.265L81.0148 5.6325C81.4785 5.7 81.6635 6.26875 81.3273 6.59625L78.2398 9.19C77.9898 9.4 77.876 9.73 77.9448 10.0487L78.8423 14.25C78.921 14.7112 78.4373 15.0637 78.0223 14.845L74.4448 12.75C74.3099 12.6708 74.1563 12.6291 73.9998 12.6291C73.8433 12.6291 73.6897 12.6708 73.5548 12.75L69.9773 14.8437C69.5635 15.0612 69.0785 14.71 69.1573 14.2487L70.0548 10.0475C70.1223 9.72875 70.0098 9.39875 69.7598 9.18875L66.671 6.5975C66.336 6.27125 66.521 5.70125 66.9835 5.63375L71.0823 5.26625C71.2393 5.25205 71.3897 5.19596 71.5177 5.10384C71.6456 5.01171 71.7465 4.88692 71.8098 4.7425L73.4923 0.905C73.701 0.485 74.2985 0.485 74.506 0.90375Z" fill="#FDD835"/>
<path d="M74.3845 4.97125L74.0995 2.14375C74.0883 1.98625 74.0558 1.71625 74.3083 1.71625C74.5083 1.71625 74.617 2.1325 74.617 2.1325L75.472 4.4025C75.7945 5.26625 75.662 5.5625 75.3508 5.7375C74.9933 5.9375 74.4658 5.78125 74.3845 4.97125Z" fill="#FFFF8D"/>
<path d="M77.91 8.93875L80.3625 7.025C80.4838 6.92375 80.7025 6.7625 80.5275 6.57875C80.3888 6.43375 80.0138 6.6425 80.0138 6.6425L77.8675 7.48125C77.2275 7.70249 76.8025 8.03 76.765 8.4425C76.7163 8.9925 77.21 9.41625 77.91 8.93875Z" fill="#F4B400"/>
<path d="M41.506 0.90375L43.1885 4.74125C43.2518 4.88567 43.3527 5.01046 43.4807 5.10259C43.6087 5.19471 43.759 5.2508 43.916 5.265L48.0148 5.6325C48.4785 5.7 48.6635 6.26875 48.3273 6.59625L45.2398 9.19C44.9898 9.4 44.876 9.73 44.9448 10.0487L45.8423 14.25C45.921 14.7112 45.4373 15.0637 45.0223 14.845L41.4448 12.75C41.3099 12.6708 41.1563 12.6291 40.9998 12.6291C40.8433 12.6291 40.6897 12.6708 40.5548 12.75L36.9773 14.8437C36.5635 15.0612 36.0785 14.71 36.1573 14.2487L37.0548 10.0475C37.1223 9.72875 37.0098 9.39875 36.7598 9.18875L33.671 6.5975C33.336 6.27125 33.521 5.70125 33.9835 5.63375L38.0823 5.26625C38.2393 5.25205 38.3897 5.19596 38.5177 5.10384C38.6456 5.01171 38.7465 4.88692 38.8098 4.7425L40.4923 0.905C40.701 0.485 41.2985 0.485 41.506 0.90375Z" fill="#FDD835"/>
<path d="M41.3845 4.97125L41.0995 2.14375C41.0883 1.98625 41.0558 1.71625 41.3083 1.71625C41.5083 1.71625 41.617 2.1325 41.617 2.1325L42.472 4.4025C42.7945 5.26625 42.662 5.5625 42.3508 5.7375C41.9933 5.9375 41.4658 5.78125 41.3845 4.97125Z" fill="#FFFF8D"/>
<path d="M44.91 8.93875L47.3625 7.025C47.4838 6.92375 47.7025 6.7625 47.5275 6.57875C47.3888 6.43375 47.0138 6.6425 47.0138 6.6425L44.8675 7.48125C44.2275 7.70249 43.8025 8.03 43.765 8.4425C43.7163 8.9925 44.21 9.41625 44.91 8.93875Z" fill="#F4B400"/>
<path d="M8.50605 0.90375L10.1885 4.74125C10.2518 4.88567 10.3527 5.01046 10.4807 5.10259C10.6087 5.19471 10.759 5.2508 10.916 5.265L15.0148 5.6325C15.4785 5.7 15.6635 6.26875 15.3273 6.59625L12.2398 9.19C11.9898 9.4 11.876 9.73 11.9448 10.0487L12.8423 14.25C12.921 14.7112 12.4373 15.0637 12.0223 14.845L8.4448 12.75C8.30987 12.6708 8.15625 12.6291 7.9998 12.6291C7.84335 12.6291 7.68973 12.6708 7.5548 12.75L3.9773 14.8437C3.56355 15.0612 3.07855 14.71 3.1573 14.2487L4.0548 10.0475C4.1223 9.72875 4.0098 9.39875 3.7598 9.18875L0.671048 6.5975C0.336048 6.27125 0.521048 5.70125 0.983548 5.63375L5.0823 5.26625C5.23934 5.25205 5.38969 5.19596 5.51765 5.10384C5.64562 5.01171 5.74651 4.88692 5.8098 4.7425L7.4923 0.905C7.70105 0.485 8.29855 0.485 8.50605 0.90375Z" fill="#FDD835"/>
<path d="M8.38453 4.97125L8.09953 2.14375C8.08828 1.98625 8.05578 1.71625 8.30828 1.71625C8.50828 1.71625 8.61703 2.1325 8.61703 2.1325L9.47203 4.4025C9.79453 5.26625 9.66203 5.5625 9.35078 5.7375C8.99328 5.9375 8.46578 5.78125 8.38453 4.97125Z" fill="#FFFF8D"/>
<path d="M11.91 8.93875L14.3625 7.025C14.4838 6.92375 14.7025 6.7625 14.5275 6.57875C14.3888 6.43375 14.0138 6.6425 14.0138 6.6425L11.8675 7.48125C11.2275 7.70249 10.8025 8.03 10.765 8.4425C10.7163 8.9925 11.21 9.41625 11.91 8.93875Z" fill="#F4B400"/>
</svg>
